<svg width="48" height="48" viewBox="0 0 48 48" fill="none" xmlns="http://www.w3.org/2000/svg">
<rect x="15" y="17" width="21" height="15" fill="white"/>
<path d="M43.1217 21.48L40.4017 18.32C39.8817 17.72 39.4617 16.6 39.4617 15.8V12.4C39.4617 10.28 37.7217 8.54 35.6017 8.54H32.2017C31.4217 8.54 30.2817 8.12 29.6817 7.6L26.5217 4.88C25.1417 3.7 22.8817 3.7 21.4817 4.88L18.3417 7.62C17.7417 8.12 16.6017 8.54 15.8217 8.54H12.3617C10.2417 8.54 8.50172 10.28 8.50172 12.4V15.82C8.50172 16.6 8.08172 17.72 7.58172 18.32L4.88172 21.5C3.72172 22.88 3.72172 25.12 4.88172 26.5L7.58172 29.68C8.08172 30.28 8.50172 31.4 8.50172 32.18V35.6C8.50172 37.72 10.2417 39.46 12.3617 39.46H15.8217C16.6017 39.46 17.7417 39.88 18.3417 40.4L21.5017 43.12C22.8817 44.3 25.1417 44.3 26.5417 43.12L29.7017 40.4C30.3017 39.88 31.4217 39.46 32.2217 39.46H35.6217C37.7417 39.46 39.4817 37.72 39.4817 35.6V32.2C39.4817 31.42 39.9017 30.28 40.4217 29.68L43.1417 26.52C44.3017 25.14 44.3017 22.86 43.1217 21.48ZM32.3217 20.22L22.6617 29.88C22.3817 30.16 22.0017 30.32 21.6017 30.32C21.2017 30.32 20.8217 30.16 20.5417 29.88L15.7017 25.04C15.1217 24.46 15.1217 23.5 15.7017 22.92C16.2817 22.34 17.2417 22.34 17.8217 22.92L21.6017 26.7L30.2017 18.1C30.7817 17.52 31.7417 17.52 32.3217 18.1C32.9017 18.68 32.9017 19.64 32.3217 20.22Z" fill="url(#paint0_linear_1_3050)"/>
<defs>
<linearGradient id="paint0_linear_1_3050" x1="4.01172" y1="24" x2="44.0092" y2="24" gradientUnits="userSpaceOnUse">
<stop stop-color="#3A3D8D"/>
<stop offset="1" stop-color="#494B86"/>
</linearGradient>
</defs>
</svg>
